Coordinates
version=1
nRows=11
nColumns=32
inDegrees=yes

Units are S.I. units (second, meters, Newtons, ...)
If the header above contains a line with 'inDegrees', this indicates whether rotational values are in degrees (yes) or radians (no).

endheader
time	pelvis_tilt	pelvis_list	pelvis_rotation	pelvis_tx	pelvis_ty	pelvis_tz	hip_flexion_r	hip_adduction_r	hip_rotation_r	knee_angle_r	knee_adduction_r	med_cond_adduction_r	lat_cond_adduction_r	patella_r_constrained_knee_angle	ankle_angle_r	subtalar_angle_r	mtp_angle_r	hip_flexion_l	hip_adduction_l	hip_rotation_l	knee_angle_l	knee_adduction_l	med_cond_adduction_l	lat_cond_adduction_l	patella_l_constrained_knee_angle	ankle_angle_l	subtalar_angle_l	mtp_angle_l	lumbar_extension	lumbar_bending	lumbar_rotation
      0.00000000	      1.84504011	      3.89729009	     -2.44154349	      0.26753484	      0.91591660	     -1.21504205	     -1.66812030	    -25.03067004	    -32.57925517	     -7.77990891	      3.50616140	      0.00000000	      0.00000000	     -0.13578503	     -6.21081338	      8.71769469	     -0.00000000	     -2.28920660	    -13.40929834	    -38.06135143	     -5.17088219	     -0.71541876	      0.00000000	      0.00000000	     -0.09024892	     -6.79187639	     17.07700393	      0.00000000	     -3.06847704	     -2.05882503	      0.92965593
      0.00500000	      1.87580838	      3.73357181	     -2.43223827	      0.26749963	      0.91603241	     -1.21505665	     -1.80795945	    -24.73969699	    -32.42208650	     -7.48880121	      3.48527941	     -0.00000000	     -0.00000000	     -0.13070424	     -6.42187640	      8.30457271	      0.00000000	     -2.32106134	    -13.63823941	    -38.08301568	     -5.24848484	     -0.64936517	     -0.00000000	     -0.00000000	     -0.09160334	     -6.73107456	     17.11462193	      0.00000000	     -3.11614944	     -1.93884740	      0.78188488
      0.01000000	      1.85108077	      3.89543561	     -2.40171443	      0.26748057	      0.91593475	     -1.21515492	     -1.75732266	    -25.01166055	    -32.53295066	     -7.64621558	      3.57601842	      0.00000000	      0.00000000	     -0.13345164	     -6.31942917	      8.43598714	      0.00000000	     -2.26395547	    -13.41389929	    -38.04339038	     -5.20204575	     -0.72445872	      0.00000000	      0.00000000	     -0.09079283	     -6.78578932	     17.10179760	     -0.00000000	     -3.08534277	     -2.08005332	      0.85652772
      0.01500000	      1.88406507	      3.67707347	     -2.44294737	      0.26744001	      0.91606277	     -1.21497409	     -1.79618708	    -24.65387975	    -32.44444940	     -7.48671331	      3.44156943	     -0.00000000	     -0.00000000	     -0.13066780	     -6.43814943	      8.33827384	      0.00000000	     -2.33295225	    -13.73161285	    -38.09019414	     -5.28496582	     -0.60617773	     -0.00000000	      0.00000000	     -0.09224005	     -6.71900201	     17.11223850	     -0.00000000	     -3.14452564	     -1.85941706	      0.83270898
      0.02000000	      1.86101813	      3.84138309	     -2.41606277	      0.26745880	      0.91597355	     -1.21509580	     -1.77725043	    -24.91807413	    -32.49531825	     -7.57909860	      3.55364131	      0.00000000	      0.00000000	     -0.13228022	     -6.37821298	      8.34092953	      0.00000000	     -2.29231127	    -13.48905147	    -38.04539459	     -5.20517018	     -0.69213641	     -0.00000000	     -0.00000000	     -0.09084736	     -6.78349028	     17.09947346	     -0.00000000	     -3.10970002	     -2.03573568	      0.84725852
      0.02500000	      1.88557564	      3.68105900	     -2.43095384	      0.26736516	      0.91605458	     -1.21500713	     -1.81066720	    -24.66017166	    -32.44642818	     -7.46357301	      3.45714906	      0.00000000	      0.00000000	     -0.13026392	     -6.45214490	      8.30127181	      0.00000000	     -2.31843101	    -13.72364812	    -38.07945116	     -5.29267895	     -0.61977421	      0.00000000	      0.00000000	     -0.09237467	     -6.69898362	     17.11300233	     -0.00000000	     -3.15430641	     -1.89303401	      0.77576351
      0.03000000	      1.87063900	      3.74045022	     -2.44463287	      0.26731329	      0.91602026	     -1.21501286	     -1.76108443	    -24.75947332	    -32.42726547	     -7.53129442	      3.49102655	      0.00000000	      0.00000000	     -0.13144588	     -6.40461875	      8.29162605	      0.00000000	     -2.30740199	    -13.62932246	    -38.07317142	     -5.24523597	     -0.65129826	      0.00000000	      0.00000000	     -0.09154664	     -6.72839170	     17.09978080	     -0.00000000	     -3.14095684	     -1.96033589	      0.80943426
      0.03500000	      1.88713686	      3.68949905	     -2.43188379	      0.26728863	      0.91606282	     -1.21499176	     -1.81314313	    -24.66790412	    -32.43502025	     -7.45343089	      3.46656931	     -0.00000000	     -0.00000000	     -0.13008691	     -6.45422156	      8.27095873	     -0.00000000	     -2.31409022	    -13.71888375	    -38.07588498	     -5.29726574	     -0.61345314	     -0.00000000	     -0.00000000	     -0.09245473	     -6.72193542	     17.10335640	     -0.00000000	     -3.17258306	     -1.91284244	      0.77706359
      0.04000000	      1.85006161	      3.84630713	     -2.40715557	      0.26728950	      0.91594747	     -1.21511504	     -1.75727202	    -24.93374366	    -32.50380975	     -7.58818003	      3.57900328	      0.00000000	      0.00000000	     -0.13243873	     -6.37046608	      8.31072014	      0.00000000	     -2.25409713	    -13.48782023	    -38.03930483	     -5.23013059	     -0.69558889	     -0.00000000	     -0.00000000	     -0.09128300	     -6.76056821	     17.10605912	      0.00000000	     -3.12844824	     -2.04627480	      0.84788313
      0.04500000	      1.88094189	      3.65689209	     -2.43691849	      0.26721833	      0.91604778	     -1.21495188	     -1.77417571	    -24.63393100	    -32.47906811	     -7.49534373	      3.44199383	     -0.00000000	     -0.00000000	     -0.13081843	     -6.42487094	      8.35319874	     -0.00000000	     -2.30498340	    -13.76834538	    -38.07765666	     -5.31714830	     -0.59603367	     -0.00000000	     -0.00000000	     -0.09280174	     -6.68496752	     17.09626259	      0.00000000	     -3.18171590	     -1.84530455	      0.84742393
      0.05000000	      1.87434211	      3.71868747	     -2.44177599	      0.26715784	      0.91603488	     -1.21498875	     -1.76647776	    -24.72000805	    -32.42652256	     -7.49665849	      3.48729487	     -0.00000000	     -0.00000000	     -0.13084137	     -6.43420936	      8.25531971	     -0.00000000	     -2.29245041	    -13.67850557	    -38.07969465	     -5.28774888	     -0.62190194	     -0.00000000	     -0.00000000	     -0.09228863	     -6.73303399	     17.08471733	     -0.00000000	     -3.17857663	     -1.96861911	      0.78633745
